<svg xmlns="http://www.w3.org/2000/svg" xmlns:xlink="http://www.w3.org/1999/xlink" width="960" height="731.3"><rect width="960" height="731.3" rx="5" ry="5" class="a"/><svg y="0%" x="0%"><circle cx="20" cy="20" r="6" fill="#ff5f58"/><circle cx="40" cy="20" r="6" fill="#ffbd2e"/><circle cx="60" cy="20" r="6" fill="#18c132"/></svg><svg height="651.3" viewBox="0 0 90 65.13" width="900" x="25" xmlns="http://www.w3.org/2000/svg" xmlns:xlink="http://www.w3.org/1999/xlink" y="60"><style>@keyframes p{0%{transform:translateX(-90px)}9.3%{transform:translateX(-180px)}12.9%{transform:translateX(-450px)}13.1%{transform:translateX(-540px)}20.5%{transform:translateX(-630px)}24.4%{transform:translateX(-720px)}24.6%{transform:translateX(-810px)}32%{transform:translateX(-900px)}35.7%{transform:translateX(-990px)}35.9%{transform:translateX(-1080px)}43.3%{transform:translateX(-1170px)}46.9%{transform:translateX(-1440px)}47.2%{transform:translateX(-1530px)}54.6%{transform:translateX(-1620px)}58.3%{transform:translateX(-1710px)}58.5%{transform:translateX(-1800px)}65.9%{transform:translateX(-1890px)}69.6%{transform:translateX(-2160px)}69.8%{transform:translateX(-2250px)}77.2%{transform:translateX(-2340px)}81.1%{transform:translateX(-2700px)}81.3%{transform:translateX(-2790px)}88.8%{transform:translateX(-2880px)}92.4%{transform:translateX(-3060px)}92.6%{transform:translateX(-3150px)}to{transform:translateX(-3240px)}}.a{fill:#282d35}.f{fill:#66c2cd;font-weight:700}.f,.g,.h{white-space:pre}.g{fill:#a8cc8c;font-weight:700}.h{fill:#b9c0cb}.i{fill:#66c2cd}.i,.j,.k,.l{white-space:pre}.j{fill:#b9c0cb;font-weight:700}.k,.l{fill:#a8cc8c}.l{fill:#dbab79}</style><g font-family="Monaco,Consolas,Menlo,'Bitstream Vera Sans Mono','Powerline Symbols',monospace" font-size="1.67"><defs><symbol id="1"><text x="2.004" y="1.67" class="f">hotbunk</text><text x="10.02" y="1.67" class="f">—</text><text x="12.024" y="1.67" class="f">cooperative</text><text x="24.048" y="1.67" class="f">compute</text><text x="32.064" y="1.67" class="f">orchestrator</text><text x="45.09" y="1.67" class="f">for</text><text x="49.098" y="1.67" class="f">Claude</text><text x="56.112" y="1.67" class="f">Code</text></symbol><symbol id="2"><text y="1.67" class="g">$</text><text x="2.004" y="1.67" class="h">hotbunk</text><text x="10.02" y="1.67" class="h">accounts</text></symbol><symbol id="3"><text x="2.004" y="1.67" class="i">personal</text><text x="16.032" y="1.67" class="h">-</text><text x="18.036" y="1.67" class="h">personal@example.com</text><text x="43.086" y="1.67" class="j">(</text><text x="44.088" y="1.67" class="h">team,</text><text x="50.1" y="1.67" class="h">default_claude_max_5x</text><text x="71.142" y="1.67" class="j">)</text></symbol><symbol id="4"><text x="2.004" y="1.67" class="i">work</text><text x="12.024" y="1.67" class="k">*</text><text x="14.028" y="1.67" class="h">-</text><text x="16.032" y="1.67" class="h">work@example.com</text><text x="39.078" y="1.67" class="j">(</text><text x="40.08" y="1.67" class="h">team,</text><text x="46.092" y="1.67" class="h">default_claude_max_5x</text><text x="67.134" y="1.67" class="j">)</text></symbol><symbol id="5"><text y="1.67" class="h">*</text><text x="2.004" y="1.67" class="h">=</text><text x="4.008" y="1.67" class="h">currently</text><text x="14.028" y="1.67" class="h">active</text></symbol><symbol id="6"><text y="1.67" class="g">$</text><text x="2.004" y="1.67" class="h">hotbunk</text><text x="10.02" y="1.67" class="h">status</text></symbol><symbol id="7"><text x="35.07" y="1.67" class="h">HotBunk</text><text x="43.086" y="1.67" class="h">Pool</text><text x="48.096" y="1.67" class="h">Status</text></symbol><symbol id="8"><text y="1.67" class="h">┏━━━━━━━━━━━━━┳━━━━━━━━━━━━━━┳━━━━━━━┳━━━━━━━━━━━━━┳━━━━━━━━━━┳━━━━━━━━━━━┳━━━━━━━━━━━━━━┓</text></symbol><symbol id="9"><text y="1.67" class="h">┃</text><text x="2.004" y="1.67" class="j">Account</text><text x="14.028" y="1.67" class="h">┃</text><text x="16.032" y="1.67" class="j">Email</text><text x="29.058" y="1.67" class="h">┃</text><text x="31.062" y="1.67" class="j">State</text><text x="37.074" y="1.67" class="h">┃</text><text x="39.078" y="1.67" class="j">Tier</text><text x="51.102" y="1.67" class="h">┃</text><text x="53.106" y="1.67" class="j">Sessions</text><text x="62.124" y="1.67" class="h">┃</text><text x="64.128" y="1.67" class="j">Auto</text><text x="69.138" y="1.67" class="j">Jobs</text><text x="74.148" y="1.67" class="h">┃</text><text x="78.156" y="1.67" class="j">Headroom</text><text x="89.178" y="1.67" class="h">┃</text></symbol><symbol id="10"><text y="1.67" class="h">┡━━━━━━━━━━━━━╇━━━━━━━━━━━━━━╇━━━━━━━╇━━━━━━━━━━━━━╇━━━━━━━━━━╇━━━━━━━━━━━╇━━━━━━━━━━━━━━┩</text></symbol><symbol id="11"><text y="1.67" class="h">│</text><text x="2.004" y="1.67" class="i">personal</text><text x="14.028" y="1.67" class="h">│</text><text x="16.032" y="1.67" class="h">personal@…</text><text x="29.058" y="1.67" class="h">│</text><text x="31.062" y="1.67" class="k">IDLE</text><text x="37.074" y="1.67" class="h">│</text><text x="39.078" y="1.67" class="h">default_cl…</text><text x="51.102" y="1.67" class="h">│</text><text x="56.112" y="1.67" class="h">0</text><text x="62.124" y="1.67" class="h">│</text><text x="68.136" y="1.67" class="h">0</text><text x="74.148" y="1.67" class="h">│</text><text x="76.152" y="1.67" class="k">[||||||||||]</text><text x="89.178" y="1.67" class="h">│</text></symbol><symbol id="12"><text y="1.67" class="h">│</text><text x="14.028" y="1.67" class="h">│</text><text x="29.058" y="1.67" class="h">│</text><text x="37.074" y="1.67" class="h">│</text><text x="51.102" y="1.67" class="h">│</text><text x="62.124" y="1.67" class="h">│</text><text x="74.148" y="1.67" class="h">│</text><text x="80.16" y="1.67" class="k">100%</text><text x="89.178" y="1.67" class="h">│</text></symbol><symbol id="13"><text y="1.67" class="h">│</text><text x="2.004" y="1.67" class="i">work</text><text x="14.028" y="1.67" class="h">│</text><text x="16.032" y="1.67" class="h">work@exam…</text><text x="29.058" y="1.67" class="h">│</text><text x="31.062" y="1.67" class="k">IDLE</text><text x="37.074" y="1.67" class="h">│</text><text x="39.078" y="1.67" class="h">default_cl…</text><text x="51.102" y="1.67" class="h">│</text><text x="56.112" y="1.67" class="h">0</text><text x="62.124" y="1.67" class="h">│</text><text x="68.136" y="1.67" class="h">0</text><text x="74.148" y="1.67" class="h">│</text><text x="76.152" y="1.67" class="k">[||||||||||]</text><text x="89.178" y="1.67" class="h">│</text></symbol><symbol id="14"><text y="1.67" class="h">└─────────────┴──────────────┴───────┴─────────────┴──────────┴───────────┴──────────────┘</text></symbol><symbol id="15"><text y="1.67" class="g">$</text><text x="2.004" y="1.67" class="h">hotbunk</text><text x="10.02" y="1.67" class="h">which</text></symbol><symbol id="16"><text y="1.67" class="i">work</text><text x="10.02" y="1.67" class="j">(</text><text x="11.022" y="1.67" class="h">work@example.com</text><text x="33.066" y="1.67" class="j">)</text></symbol><symbol id="17"><text y="1.67" class="g">$</text><text x="2.004" y="1.67" class="h">hotbunk</text><text x="10.02" y="1.67" class="h">switch</text><text x="17.034" y="1.67" class="h">personal</text></symbol><symbol id="18"><text y="1.67" class="k">Switched</text><text x="9.018" y="1.67" class="k">to</text><text x="12.024" y="1.67" class="k">&apos;personal&apos;</text><text x="28.056" y="1.67" class="g">(</text><text x="29.058" y="1.67" class="k">personal@example.com</text><text x="53.106" y="1.67" class="g">)</text></symbol><symbol id="19"><text y="1.67" class="h">Previous</text><text x="9.018" y="1.67" class="h">account</text><text x="17.034" y="1.67" class="k">&apos;work&apos;</text><text x="29.058" y="1.67" class="h">credentials</text><text x="41.082" y="1.67" class="h">saved.</text></symbol><symbol id="20"><text y="1.67" class="h">New</text><text x="4.008" y="1.67" class="h">Claude</text><text x="11.022" y="1.67" class="h">Code</text><text x="16.032" y="1.67" class="h">sessions</text><text x="25.05" y="1.67" class="h">will</text><text x="30.06" y="1.67" class="h">use</text><text x="34.068" y="1.67" class="h">this</text><text x="39.078" y="1.67" class="h">account.</text></symbol><symbol id="21"><text y="1.67" class="i">personal</text><text x="14.028" y="1.67" class="j">(</text><text x="15.03" y="1.67" class="h">personal@example.com</text><text x="39.078" y="1.67" class="j">)</text></symbol><symbol id="22"><text y="1.67" class="g">$</text><text x="2.004" y="1.67" class="h">hotbunk</text><text x="10.02" y="1.67" class="h">switch</text><text x="17.034" y="1.67" class="h">work</text></symbol><symbol id="23"><text y="1.67" class="k">Switched</text><text x="9.018" y="1.67" class="k">to</text><text x="12.024" y="1.67" class="k">&apos;work&apos;</text><text x="24.048" y="1.67" class="g">(</text><text x="25.05" y="1.67" class="k">work@example.com</text><text x="47.094" y="1.67" class="g">)</text></symbol><symbol id="24"><text y="1.67" class="h">Previous</text><text x="9.018" y="1.67" class="h">account</text><text x="17.034" y="1.67" class="k">&apos;personal&apos;</text><text x="33.066" y="1.67" class="h">credentials</text><text x="45.09" y="1.67" class="h">saved.</text></symbol><symbol id="25"><text y="1.67" class="g">$</text><text x="2.004" y="1.67" class="h">hotbunk</text><text x="10.02" y="1.67" class="h">submit</text><text x="17.034" y="1.67" class="h">militia</text><text x="25.05" y="1.67" class="h">-c</text><text x="28.056" y="1.67" class="h">&quot;claude</text><text x="36.072" y="1.67" class="h">-p</text><text x="39.078" y="1.67" class="h">&apos;run</text><text x="44.088" y="1.67" class="h">nightly</text><text x="52.104" y="1.67" class="h">audit&apos;&quot;</text><text x="60.12" y="1.67" class="h">--dry-run</text></symbol><symbol id="26"><text y="1.67" class="l">DRY</text><text x="4.008" y="1.67" class="l">RUN</text></symbol><symbol id="27"><text y="1.67" class="h">Would</text><text x="6.012" y="1.67" class="h">assign</text><text x="13.026" y="1.67" class="h">to:</text><text x="17.034" y="1.67" class="i">personal</text></symbol><symbol id="28"><text y="1.67" class="h">CLAUDE_CONFIG_DIR:</text><text x="19.038" y="1.67" style="white-space:pre" fill="#d290e4">~/.hotbunk/accounts/</text><text x="48.096" y="1.67" style="white-space:pre" fill="#d290e3">personal</text></symbol><symbol id="29"><text y="1.67" class="h">Command:</text><text x="9.018" y="1.67" class="h">claude</text><text x="16.032" y="1.67" class="h">-p</text><text x="19.038" y="1.67" class="k">&apos;run</text><text x="24.048" y="1.67" class="k">nightly</text><text x="32.064" y="1.67" class="k">audit&apos;</text></symbol><symbol id="30"><text y="1.67" class="g">$</text><text x="2.004" y="1.67" class="h">hotbunk</text><text x="10.02" y="1.67" class="h">policy</text><text x="17.034" y="1.67" class="h">-a</text><text x="20.04" y="1.67" class="h">work</text></symbol><symbol id="31"><text y="1.67" class="i">Policy</text><text x="7.014" y="1.67" class="i">for</text><text x="11.022" y="1.67" class="i">&apos;work&apos;:</text></symbol><symbol id="32"><text y="1.67" class="h">owner:</text><text x="7.014" y="1.67" class="h">work</text></symbol><symbol id="33"><text y="1.67" class="h">email:</text><text x="7.014" y="1.67" class="h">work@example.com</text></symbol><symbol id="34"><text y="1.67" class="h">interactive_priority:</text><text x="22.044" y="1.67" class="h">always</text></symbol><symbol id="35"><text y="1.67" class="h">allow_automated:</text><text x="17.034" y="1.67" class="h">true</text></symbol><symbol id="36"><text y="1.67" class="h">automated_types:</text></symbol><symbol id="37"><text y="1.67" class="h">-</text><text x="2.004" y="1.67" class="h">militia</text></symbol><symbol id="38"><text y="1.67" class="h">-</text><text x="2.004" y="1.67" class="h">training</text></symbol><symbol id="39"><text y="1.67" class="h">-</text><text x="2.004" y="1.67" class="h">ci</text></symbol><symbol id="40"><text y="1.67" class="h">sleep_window:</text><text x="14.028" y="1.67" class="h">null</text></symbol><symbol id="41"><text y="1.67" class="h">availability:</text><text x="14.028" y="1.67" class="h">always</text></symbol><symbol id="42"><text y="1.67" class="h">max_automated_concurrent:</text><text x="26.052" y="1.67" class="f">2</text></symbol><symbol id="a"><path fill="transparent" d="M0 0h90v31H0z"/></symbol></defs><path class="a" d="M0 0h90v65.13H0z"/><g style="animation-duration:10.792576s;animation-iteration-count:infinite;animation-name:p;animation-timing-function:steps(1,end)"><svg width="3330"><svg><use xlink:href="#a"/></svg><svg x="90"><use xlink:href="#a"/><use xlink:href="#1" y="2.171"/></svg><svg x="180"><use xlink:href="#a"/><use xlink:href="#1" y="2.171"/><use xlink:href="#2" y="6.513"/></svg><svg x="270"><use xlink:href="#a"/><use xlink:href="#1" y="2.171"/><use xlink:href="#2" y="6.513"/><use xlink:href="#3" y="8.684"/></svg><svg x="360"><use xlink:href="#a"/><use xlink:href="#1" y="2.171"/><use xlink:href="#2" y="6.513"/><use xlink:href="#3" y="8.684"/><use xlink:href="#4" y="10.855"/></svg><svg x="450"><use xlink:href="#a"/><use xlink:href="#1" y="2.171"/><use xlink:href="#2" y="6.513"/><use xlink:href="#3" y="8.684"/><use xlink:href="#4" y="10.855"/><use xlink:href="#5" y="15.197"/></svg><svg x="540"><use xlink:href="#a"/><use xlink:href="#1" y="2.171"/><use xlink:href="#2" y="6.513"/><use xlink:href="#3" y="8.684"/><use xlink:href="#4" y="10.855"/><use xlink:href="#5" y="15.197"/></svg><svg x="630"><use xlink:href="#a"/><use xlink:href="#1" y="2.171"/><use xlink:href="#2" y="6.513"/><use xlink:href="#3" y="8.684"/><use xlink:href="#4" y="10.855"/><use xlink:href="#5" y="15.197"/><use xlink:href="#6" y="19.539"/></svg><svg x="720"><use xlink:href="#a"/><use xlink:href="#1" y="2.171"/><use xlink:href="#2" y="6.513"/><use xlink:href="#3" y="8.684"/><use xlink:href="#4" y="10.855"/><use xlink:href="#5" y="15.197"/><use xlink:href="#6" y="19.539"/><use xlink:href="#7" y="21.71"/><use xlink:href="#8" y="23.881"/><use xlink:href="#9" y="26.052"/><use xlink:href="#10" y="28.223"/><use xlink:href="#11" y="30.394"/><use xlink:href="#12" y="32.565"/><use xlink:href="#13" y="34.736"/><use xlink:href="#12" y="36.907"/><use xlink:href="#14" y="39.078"/></svg><svg x="810"><use xlink:href="#a"/><use xlink:href="#1" y="2.171"/><use xlink:href="#2" y="6.513"/><use xlink:href="#3" y="8.684"/><use xlink:href="#4" y="10.855"/><use xlink:href="#5" y="15.197"/><use xlink:href="#6" y="19.539"/><use xlink:href="#7" y="21.71"/><use xlink:href="#8" y="23.881"/><use xlink:href="#9" y="26.052"/><use xlink:href="#10" y="28.223"/><use xlink:href="#11" y="30.394"/><use xlink:href="#12" y="32.565"/><use xlink:href="#13" y="34.736"/><use xlink:href="#12" y="36.907"/><use xlink:href="#14" y="39.078"/></svg><svg x="900"><use xlink:href="#a"/><use xlink:href="#1" y="2.171"/><use xlink:href="#2" y="6.513"/><use xlink:href="#3" y="8.684"/><use xlink:href="#4" y="10.855"/><use xlink:href="#5" y="15.197"/><use xlink:href="#6" y="19.539"/><use xlink:href="#7" y="21.71"/><use xlink:href="#8" y="23.881"/><use xlink:href="#9" y="26.052"/><use xlink:href="#10" y="28.223"/><use xlink:href="#11" y="30.394"/><use xlink:href="#12" y="32.565"/><use xlink:href="#13" y="34.736"/><use xlink:href="#12" y="36.907"/><use xlink:href="#14" y="39.078"/><use xlink:href="#15" y="43.42"/></svg><svg x="990"><use xlink:href="#a"/><use xlink:href="#1" y="2.171"/><use xlink:href="#2" y="6.513"/><use xlink:href="#3" y="8.684"/><use xlink:href="#4" y="10.855"/><use xlink:href="#5" y="15.197"/><use xlink:href="#6" y="19.539"/><use xlink:href="#7" y="21.71"/><use xlink:href="#8" y="23.881"/><use xlink:href="#9" y="26.052"/><use xlink:href="#10" y="28.223"/><use xlink:href="#11" y="30.394"/><use xlink:href="#12" y="32.565"/><use xlink:href="#13" y="34.736"/><use xlink:href="#12" y="36.907"/><use xlink:href="#14" y="39.078"/><use xlink:href="#15" y="43.42"/><use xlink:href="#16" y="45.591"/></svg><svg x="1080"><use xlink:href="#a"/><use xlink:href="#1" y="2.171"/><use xlink:href="#2" y="6.513"/><use xlink:href="#3" y="8.684"/><use xlink:href="#4" y="10.855"/><use xlink:href="#5" y="15.197"/><use xlink:href="#6" y="19.539"/><use xlink:href="#7" y="21.71"/><use xlink:href="#8" y="23.881"/><use xlink:href="#9" y="26.052"/><use xlink:href="#10" y="28.223"/><use xlink:href="#11" y="30.394"/><use xlink:href="#12" y="32.565"/><use xlink:href="#13" y="34.736"/><use xlink:href="#12" y="36.907"/><use xlink:href="#14" y="39.078"/><use xlink:href="#15" y="43.42"/><use xlink:href="#16" y="45.591"/></svg><svg x="1170"><use xlink:href="#a"/><use xlink:href="#1" y="2.171"/><use xlink:href="#2" y="6.513"/><use xlink:href="#3" y="8.684"/><use xlink:href="#4" y="10.855"/><use xlink:href="#5" y="15.197"/><use xlink:href="#6" y="19.539"/><use xlink:href="#7" y="21.71"/><use xlink:href="#8" y="23.881"/><use xlink:href="#9" y="26.052"/><use xlink:href="#10" y="28.223"/><use xlink:href="#11" y="30.394"/><use xlink:href="#12" y="32.565"/><use xlink:href="#13" y="34.736"/><use xlink:href="#12" y="36.907"/><use xlink:href="#14" y="39.078"/><use xlink:href="#15" y="43.42"/><use xlink:href="#16" y="45.591"/><use xlink:href="#17" y="49.933"/></svg><svg x="1260"><use xlink:href="#a"/><use xlink:href="#1" y="2.171"/><use xlink:href="#2" y="6.513"/><use xlink:href="#3" y="8.684"/><use xlink:href="#4" y="10.855"/><use xlink:href="#5" y="15.197"/><use xlink:href="#6" y="19.539"/><use xlink:href="#7" y="21.71"/><use xlink:href="#8" y="23.881"/><use xlink:href="#9" y="26.052"/><use xlink:href="#10" y="28.223"/><use xlink:href="#11" y="30.394"/><use xlink:href="#12" y="32.565"/><use xlink:href="#13" y="34.736"/><use xlink:href="#12" y="36.907"/><use xlink:href="#14" y="39.078"/><use xlink:href="#15" y="43.42"/><use xlink:href="#16" y="45.591"/><use xlink:href="#17" y="49.933"/><use xlink:href="#18" y="52.104"/></svg><svg x="1350"><use xlink:href="#a"/><use xlink:href="#1" y="2.171"/><use xlink:href="#2" y="6.513"/><use xlink:href="#3" y="8.684"/><use xlink:href="#4" y="10.855"/><use xlink:href="#5" y="15.197"/><use xlink:href="#6" y="19.539"/><use xlink:href="#7" y="21.71"/><use xlink:href="#8" y="23.881"/><use xlink:href="#9" y="26.052"/><use xlink:href="#10" y="28.223"/><use xlink:href="#11" y="30.394"/><use xlink:href="#12" y="32.565"/><use xlink:href="#13" y="34.736"/><use xlink:href="#12" y="36.907"/><use xlink:href="#14" y="39.078"/><use xlink:href="#15" y="43.42"/><use xlink:href="#16" y="45.591"/><use xlink:href="#17" y="49.933"/><use xlink:href="#18" y="52.104"/><use xlink:href="#19" y="54.275"/></svg><svg x="1440"><use xlink:href="#a"/><use xlink:href="#1" y="2.171"/><use xlink:href="#2" y="6.513"/><use xlink:href="#3" y="8.684"/><use xlink:href="#4" y="10.855"/><use xlink:href="#5" y="15.197"/><use xlink:href="#6" y="19.539"/><use xlink:href="#7" y="21.71"/><use xlink:href="#8" y="23.881"/><use xlink:href="#9" y="26.052"/><use xlink:href="#10" y="28.223"/><use xlink:href="#11" y="30.394"/><use xlink:href="#12" y="32.565"/><use xlink:href="#13" y="34.736"/><use xlink:href="#12" y="36.907"/><use xlink:href="#14" y="39.078"/><use xlink:href="#15" y="43.42"/><use xlink:href="#16" y="45.591"/><use xlink:href="#17" y="49.933"/><use xlink:href="#18" y="52.104"/><use xlink:href="#19" y="54.275"/><use xlink:href="#20" y="56.446"/></svg><svg x="1530"><use xlink:href="#a"/><use xlink:href="#1" y="2.171"/><use xlink:href="#2" y="6.513"/><use xlink:href="#3" y="8.684"/><use xlink:href="#4" y="10.855"/><use xlink:href="#5" y="15.197"/><use xlink:href="#6" y="19.539"/><use xlink:href="#7" y="21.71"/><use xlink:href="#8" y="23.881"/><use xlink:href="#9" y="26.052"/><use xlink:href="#10" y="28.223"/><use xlink:href="#11" y="30.394"/><use xlink:href="#12" y="32.565"/><use xlink:href="#13" y="34.736"/><use xlink:href="#12" y="36.907"/><use xlink:href="#14" y="39.078"/><use xlink:href="#15" y="43.42"/><use xlink:href="#16" y="45.591"/><use xlink:href="#17" y="49.933"/><use xlink:href="#18" y="52.104"/><use xlink:href="#19" y="54.275"/><use xlink:href="#20" y="56.446"/></svg><svg x="1620"><use xlink:href="#a"/><use xlink:href="#1" y="2.171"/><use xlink:href="#2" y="6.513"/><use xlink:href="#3" y="8.684"/><use xlink:href="#4" y="10.855"/><use xlink:href="#5" y="15.197"/><use xlink:href="#6" y="19.539"/><use xlink:href="#7" y="21.71"/><use xlink:href="#8" y="23.881"/><use xlink:href="#9" y="26.052"/><use xlink:href="#10" y="28.223"/><use xlink:href="#11" y="30.394"/><use xlink:href="#12" y="32.565"/><use xlink:href="#13" y="34.736"/><use xlink:href="#12" y="36.907"/><use xlink:href="#14" y="39.078"/><use xlink:href="#15" y="43.42"/><use xlink:href="#16" y="45.591"/><use xlink:href="#17" y="49.933"/><use xlink:href="#18" y="52.104"/><use xlink:href="#19" y="54.275"/><use xlink:href="#20" y="56.446"/><use xlink:href="#15" y="60.788"/></svg><svg x="1710"><use xlink:href="#a"/><use xlink:href="#1" y="2.171"/><use xlink:href="#2" y="6.513"/><use xlink:href="#3" y="8.684"/><use xlink:href="#4" y="10.855"/><use xlink:href="#5" y="15.197"/><use xlink:href="#6" y="19.539"/><use xlink:href="#7" y="21.71"/><use xlink:href="#8" y="23.881"/><use xlink:href="#9" y="26.052"/><use xlink:href="#10" y="28.223"/><use xlink:href="#11" y="30.394"/><use xlink:href="#12" y="32.565"/><use xlink:href="#13" y="34.736"/><use xlink:href="#12" y="36.907"/><use xlink:href="#14" y="39.078"/><use xlink:href="#15" y="43.42"/><use xlink:href="#16" y="45.591"/><use xlink:href="#17" y="49.933"/><use xlink:href="#18" y="52.104"/><use xlink:href="#19" y="54.275"/><use xlink:href="#20" y="56.446"/><use xlink:href="#15" y="60.788"/><use xlink:href="#21" y="62.959"/></svg><svg x="1800"><use xlink:href="#a"/><use xlink:href="#1"/><use xlink:href="#2" y="4.342"/><use xlink:href="#3" y="6.513"/><use xlink:href="#4" y="8.684"/><use xlink:href="#5" y="13.026"/><use xlink:href="#6" y="17.368"/><use xlink:href="#7" y="19.539"/><use xlink:href="#8" y="21.71"/><use xlink:href="#9" y="23.881"/><use xlink:href="#10" y="26.052"/><use xlink:href="#11" y="28.223"/><use xlink:href="#12" y="30.394"/><use xlink:href="#13" y="32.565"/><use xlink:href="#12" y="34.736"/><use xlink:href="#14" y="36.907"/><use xlink:href="#15" y="41.249"/><use xlink:href="#16" y="43.42"/><use xlink:href="#17" y="47.762"/><use xlink:href="#18" y="49.933"/><use xlink:href="#19" y="52.104"/><use xlink:href="#20" y="54.275"/><use xlink:href="#15" y="58.617"/><use xlink:href="#21" y="60.788"/></svg><svg x="1890"><use xlink:href="#a"/><use xlink:href="#2" y="2.171"/><use xlink:href="#3" y="4.342"/><use xlink:href="#4" y="6.513"/><use xlink:href="#5" y="10.855"/><use xlink:href="#6" y="15.197"/><use xlink:href="#7" y="17.368"/><use xlink:href="#8" y="19.539"/><use xlink:href="#9" y="21.71"/><use xlink:href="#10" y="23.881"/><use xlink:href="#11" y="26.052"/><use xlink:href="#12" y="28.223"/><use xlink:href="#13" y="30.394"/><use xlink:href="#12" y="32.565"/><use xlink:href="#14" y="34.736"/><use xlink:href="#15" y="39.078"/><use xlink:href="#16" y="41.249"/><use xlink:href="#17" y="45.591"/><use xlink:href="#18" y="47.762"/><use xlink:href="#19" y="49.933"/><use xlink:href="#20" y="52.104"/><use xlink:href="#15" y="56.446"/><use xlink:href="#21" y="58.617"/><use xlink:href="#22" y="62.959"/></svg><svg x="1980"><use xlink:href="#a"/><use xlink:href="#2"/><use xlink:href="#3" y="2.171"/><use xlink:href="#4" y="4.342"/><use xlink:href="#5" y="8.684"/><use xlink:href="#6" y="13.026"/><use xlink:href="#7" y="15.197"/><use xlink:href="#8" y="17.368"/><use xlink:href="#9" y="19.539"/><use xlink:href="#10" y="21.71"/><use xlink:href="#11" y="23.881"/><use xlink:href="#12" y="26.052"/><use xlink:href="#13" y="28.223"/><use xlink:href="#12" y="30.394"/><use xlink:href="#14" y="32.565"/><use xlink:href="#15" y="36.907"/><use xlink:href="#16" y="39.078"/><use xlink:href="#17" y="43.42"/><use xlink:href="#18" y="45.591"/><use xlink:href="#19" y="47.762"/><use xlink:href="#20" y="49.933"/><use xlink:href="#15" y="54.275"/><use xlink:href="#21" y="56.446"/><use xlink:href="#22" y="60.788"/><use xlink:href="#23" y="62.959"/></svg><svg x="2070"><use xlink:href="#a"/><use xlink:href="#3"/><use xlink:href="#4" y="2.171"/><use xlink:href="#5" y="6.513"/><use xlink:href="#6" y="10.855"/><use xlink:href="#7" y="13.026"/><use xlink:href="#8" y="15.197"/><use xlink:href="#9" y="17.368"/><use xlink:href="#10" y="19.539"/><use xlink:href="#11" y="21.71"/><use xlink:href="#12" y="23.881"/><use xlink:href="#13" y="26.052"/><use xlink:href="#12" y="28.223"/><use xlink:href="#14" y="30.394"/><use xlink:href="#15" y="34.736"/><use xlink:href="#16" y="36.907"/><use xlink:href="#17" y="41.249"/><use xlink:href="#18" y="43.42"/><use xlink:href="#19" y="45.591"/><use xlink:href="#20" y="47.762"/><use xlink:href="#15" y="52.104"/><use xlink:href="#21" y="54.275"/><use xlink:href="#22" y="58.617"/><use xlink:href="#23" y="60.788"/><use xlink:href="#24" y="62.959"/></svg><svg x="2160"><use xlink:href="#a"/><use xlink:href="#4"/><use xlink:href="#5" y="4.342"/><use xlink:href="#6" y="8.684"/><use xlink:href="#7" y="10.855"/><use xlink:href="#8" y="13.026"/><use xlink:href="#9" y="15.197"/><use xlink:href="#10" y="17.368"/><use xlink:href="#11" y="19.539"/><use xlink:href="#12" y="21.71"/><use xlink:href="#13" y="23.881"/><use xlink:href="#12" y="26.052"/><use xlink:href="#14" y="28.223"/><use xlink:href="#15" y="32.565"/><use xlink:href="#16" y="34.736"/><use xlink:href="#17" y="39.078"/><use xlink:href="#18" y="41.249"/><use xlink:href="#19" y="43.42"/><use xlink:href="#20" y="45.591"/><use xlink:href="#15" y="49.933"/><use xlink:href="#21" y="52.104"/><use xlink:href="#22" y="56.446"/><use xlink:href="#23" y="58.617"/><use xlink:href="#24" y="60.788"/><use xlink:href="#20" y="62.959"/></svg><svg x="2250"><use xlink:href="#a"/><use xlink:href="#5" y="2.171"/><use xlink:href="#6" y="6.513"/><use xlink:href="#7" y="8.684"/><use xlink:href="#8" y="10.855"/><use xlink:href="#9" y="13.026"/><use xlink:href="#10" y="15.197"/><use xlink:href="#11" y="17.368"/><use xlink:href="#12" y="19.539"/><use xlink:href="#13" y="21.71"/><use xlink:href="#12" y="23.881"/><use xlink:href="#14" y="26.052"/><use xlink:href="#15" y="30.394"/><use xlink:href="#16" y="32.565"/><use xlink:href="#17" y="36.907"/><use xlink:href="#18" y="39.078"/><use xlink:href="#19" y="41.249"/><use xlink:href="#20" y="43.42"/><use xlink:href="#15" y="47.762"/><use xlink:href="#21" y="49.933"/><use xlink:href="#22" y="54.275"/><use xlink:href="#23" y="56.446"/><use xlink:href="#24" y="58.617"/><use xlink:href="#20" y="60.788"/></svg><svg x="2340"><use xlink:href="#a"/><use xlink:href="#5"/><use xlink:href="#6" y="4.342"/><use xlink:href="#7" y="6.513"/><use xlink:href="#8" y="8.684"/><use xlink:href="#9" y="10.855"/><use xlink:href="#10" y="13.026"/><use xlink:href="#11" y="15.197"/><use xlink:href="#12" y="17.368"/><use xlink:href="#13" y="19.539"/><use xlink:href="#12" y="21.71"/><use xlink:href="#14" y="23.881"/><use xlink:href="#15" y="28.223"/><use xlink:href="#16" y="30.394"/><use xlink:href="#17" y="34.736"/><use xlink:href="#18" y="36.907"/><use xlink:href="#19" y="39.078"/><use xlink:href="#20" y="41.249"/><use xlink:href="#15" y="45.591"/><use xlink:href="#21" y="47.762"/><use xlink:href="#22" y="52.104"/><use xlink:href="#23" y="54.275"/><use xlink:href="#24" y="56.446"/><use xlink:href="#20" y="58.617"/><use xlink:href="#25" y="62.959"/></svg><svg x="2430"><use xlink:href="#a"/><use xlink:href="#6" y="2.171"/><use xlink:href="#7" y="4.342"/><use xlink:href="#8" y="6.513"/><use xlink:href="#9" y="8.684"/><use xlink:href="#10" y="10.855"/><use xlink:href="#11" y="13.026"/><use xlink:href="#12" y="15.197"/><use xlink:href="#13" y="17.368"/><use xlink:href="#12" y="19.539"/><use xlink:href="#14" y="21.71"/><use xlink:href="#15" y="26.052"/><use xlink:href="#16" y="28.223"/><use xlink:href="#17" y="32.565"/><use xlink:href="#18" y="34.736"/><use xlink:href="#19" y="36.907"/><use xlink:href="#20" y="39.078"/><use xlink:href="#15" y="43.42"/><use xlink:href="#21" y="45.591"/><use xlink:href="#22" y="49.933"/><use xlink:href="#23" y="52.104"/><use xlink:href="#24" y="54.275"/><use xlink:href="#20" y="56.446"/><use xlink:href="#25" y="60.788"/><use xlink:href="#26" y="62.959"/></svg><svg x="2520"><use xlink:href="#a"/><use xlink:href="#6"/><use xlink:href="#7" y="2.171"/><use xlink:href="#8" y="4.342"/><use xlink:href="#9" y="6.513"/><use xlink:href="#10" y="8.684"/><use xlink:href="#11" y="10.855"/><use xlink:href="#12" y="13.026"/><use xlink:href="#13" y="15.197"/><use xlink:href="#12" y="17.368"/><use xlink:href="#14" y="19.539"/><use xlink:href="#15" y="23.881"/><use xlink:href="#16" y="26.052"/><use xlink:href="#17" y="30.394"/><use xlink:href="#18" y="32.565"/><use xlink:href="#19" y="34.736"/><use xlink:href="#20" y="36.907"/><use xlink:href="#15" y="41.249"/><use xlink:href="#21" y="43.42"/><use xlink:href="#22" y="47.762"/><use xlink:href="#23" y="49.933"/><use xlink:href="#24" y="52.104"/><use xlink:href="#20" y="54.275"/><use xlink:href="#25" y="58.617"/><use xlink:href="#26" y="60.788"/><use xlink:href="#27" y="62.959"/></svg><svg x="2610"><use xlink:href="#a"/><use xlink:href="#7"/><use xlink:href="#8" y="2.171"/><use xlink:href="#9" y="4.342"/><use xlink:href="#10" y="6.513"/><use xlink:href="#11" y="8.684"/><use xlink:href="#12" y="10.855"/><use xlink:href="#13" y="13.026"/><use xlink:href="#12" y="15.197"/><use xlink:href="#14" y="17.368"/><use xlink:href="#15" y="21.71"/><use xlink:href="#16" y="23.881"/><use xlink:href="#17" y="28.223"/><use xlink:href="#18" y="30.394"/><use xlink:href="#19" y="32.565"/><use xlink:href="#20" y="34.736"/><use xlink:href="#15" y="39.078"/><use xlink:href="#21" y="41.249"/><use xlink:href="#22" y="45.591"/><use xlink:href="#23" y="47.762"/><use xlink:href="#24" y="49.933"/><use xlink:href="#20" y="52.104"/><use xlink:href="#25" y="56.446"/><use xlink:href="#26" y="58.617"/><use xlink:href="#27" y="60.788"/><use xlink:href="#28" y="62.959"/></svg><svg x="2700"><use xlink:href="#a"/><use xlink:href="#8"/><use xlink:href="#9" y="2.171"/><use xlink:href="#10" y="4.342"/><use xlink:href="#11" y="6.513"/><use xlink:href="#12" y="8.684"/><use xlink:href="#13" y="10.855"/><use xlink:href="#12" y="13.026"/><use xlink:href="#14" y="15.197"/><use xlink:href="#15" y="19.539"/><use xlink:href="#16" y="21.71"/><use xlink:href="#17" y="26.052"/><use xlink:href="#18" y="28.223"/><use xlink:href="#19" y="30.394"/><use xlink:href="#20" y="32.565"/><use xlink:href="#15" y="36.907"/><use xlink:href="#21" y="39.078"/><use xlink:href="#22" y="43.42"/><use xlink:href="#23" y="45.591"/><use xlink:href="#24" y="47.762"/><use xlink:href="#20" y="49.933"/><use xlink:href="#25" y="54.275"/><use xlink:href="#26" y="56.446"/><use xlink:href="#27" y="58.617"/><use xlink:href="#28" y="60.788"/><use xlink:href="#29" y="62.959"/></svg><svg x="2790"><use xlink:href="#a"/><use xlink:href="#9"/><use xlink:href="#10" y="2.171"/><use xlink:href="#11" y="4.342"/><use xlink:href="#12" y="6.513"/><use xlink:href="#13" y="8.684"/><use xlink:href="#12" y="10.855"/><use xlink:href="#14" y="13.026"/><use xlink:href="#15" y="17.368"/><use xlink:href="#16" y="19.539"/><use xlink:href="#17" y="23.881"/><use xlink:href="#18" y="26.052"/><use xlink:href="#19" y="28.223"/><use xlink:href="#20" y="30.394"/><use xlink:href="#15" y="34.736"/><use xlink:href="#21" y="36.907"/><use xlink:href="#22" y="41.249"/><use xlink:href="#23" y="43.42"/><use xlink:href="#24" y="45.591"/><use xlink:href="#20" y="47.762"/><use xlink:href="#25" y="52.104"/><use xlink:href="#26" y="54.275"/><use xlink:href="#27" y="56.446"/><use xlink:href="#28" y="58.617"/><use xlink:href="#29" y="60.788"/></svg><svg x="2880"><use xlink:href="#a"/><use xlink:href="#10"/><use xlink:href="#11" y="2.171"/><use xlink:href="#12" y="4.342"/><use xlink:href="#13" y="6.513"/><use xlink:href="#12" y="8.684"/><use xlink:href="#14" y="10.855"/><use xlink:href="#15" y="15.197"/><use xlink:href="#16" y="17.368"/><use xlink:href="#17" y="21.71"/><use xlink:href="#18" y="23.881"/><use xlink:href="#19" y="26.052"/><use xlink:href="#20" y="28.223"/><use xlink:href="#15" y="32.565"/><use xlink:href="#21" y="34.736"/><use xlink:href="#22" y="39.078"/><use xlink:href="#23" y="41.249"/><use xlink:href="#24" y="43.42"/><use xlink:href="#20" y="45.591"/><use xlink:href="#25" y="49.933"/><use xlink:href="#26" y="52.104"/><use xlink:href="#27" y="54.275"/><use xlink:href="#28" y="56.446"/><use xlink:href="#29" y="58.617"/><use xlink:href="#30" y="62.959"/></svg><svg x="2970"><use xlink:href="#a"/><use xlink:href="#11"/><use xlink:href="#12" y="2.171"/><use xlink:href="#13" y="4.342"/><use xlink:href="#12" y="6.513"/><use xlink:href="#14" y="8.684"/><use xlink:href="#15" y="13.026"/><use xlink:href="#16" y="15.197"/><use xlink:href="#17" y="19.539"/><use xlink:href="#18" y="21.71"/><use xlink:href="#19" y="23.881"/><use xlink:href="#20" y="26.052"/><use xlink:href="#15" y="30.394"/><use xlink:href="#21" y="32.565"/><use xlink:href="#22" y="36.907"/><use xlink:href="#23" y="39.078"/><use xlink:href="#24" y="41.249"/><use xlink:href="#20" y="43.42"/><use xlink:href="#25" y="47.762"/><use xlink:href="#26" y="49.933"/><use xlink:href="#27" y="52.104"/><use xlink:href="#28" y="54.275"/><use xlink:href="#29" y="56.446"/><use xlink:href="#30" y="60.788"/><use xlink:href="#31" y="62.959"/></svg><svg x="3060"><use xlink:href="#a"/><use xlink:href="#20"/><use xlink:href="#15" y="4.342"/><use xlink:href="#21" y="6.513"/><use xlink:href="#22" y="10.855"/><use xlink:href="#23" y="13.026"/><use xlink:href="#24" y="15.197"/><use xlink:href="#20" y="17.368"/><use xlink:href="#25" y="21.71"/><use xlink:href="#26" y="23.881"/><use xlink:href="#27" y="26.052"/><use xlink:href="#28" y="28.223"/><use xlink:href="#29" y="30.394"/><use xlink:href="#30" y="34.736"/><use xlink:href="#31" y="36.907"/><use xlink:href="#32" y="39.078"/><use xlink:href="#33" y="41.249"/><use xlink:href="#34" y="43.42"/><use xlink:href="#35" y="45.591"/><use xlink:href="#36" y="47.762"/><use xlink:href="#37" y="49.933"/><use xlink:href="#38" y="52.104"/><use xlink:href="#39" y="54.275"/><use xlink:href="#40" y="56.446"/><use xlink:href="#41" y="58.617"/><use xlink:href="#42" y="60.788"/></svg><svg x="3150"><use xlink:href="#a"/><use xlink:href="#15" y="2.171"/><use xlink:href="#21" y="4.342"/><use xlink:href="#22" y="8.684"/><use xlink:href="#23" y="10.855"/><use xlink:href="#24" y="13.026"/><use xlink:href="#20" y="15.197"/><use xlink:href="#25" y="19.539"/><use xlink:href="#26" y="21.71"/><use xlink:href="#27" y="23.881"/><use xlink:href="#28" y="26.052"/><use xlink:href="#29" y="28.223"/><use xlink:href="#30" y="32.565"/><use xlink:href="#31" y="34.736"/><use xlink:href="#32" y="36.907"/><use xlink:href="#33" y="39.078"/><use xlink:href="#34" y="41.249"/><use xlink:href="#35" y="43.42"/><use xlink:href="#36" y="45.591"/><use xlink:href="#37" y="47.762"/><use xlink:href="#38" y="49.933"/><use xlink:href="#39" y="52.104"/><use xlink:href="#40" y="54.275"/><use xlink:href="#41" y="56.446"/><use xlink:href="#42" y="58.617"/></svg><svg x="3240"><use xlink:href="#a"/><use xlink:href="#21"/><use xlink:href="#22" y="4.342"/><use xlink:href="#23" y="6.513"/><use xlink:href="#24" y="8.684"/><use xlink:href="#20" y="10.855"/><use xlink:href="#25" y="15.197"/><use xlink:href="#26" y="17.368"/><use xlink:href="#27" y="19.539"/><use xlink:href="#28" y="21.71"/><use xlink:href="#29" y="23.881"/><use xlink:href="#30" y="28.223"/><use xlink:href="#31" y="30.394"/><use xlink:href="#32" y="32.565"/><use xlink:href="#33" y="34.736"/><use xlink:href="#34" y="36.907"/><use xlink:href="#35" y="39.078"/><use xlink:href="#36" y="41.249"/><use xlink:href="#37" y="43.42"/><use xlink:href="#38" y="45.591"/><use xlink:href="#39" y="47.762"/><use xlink:href="#40" y="49.933"/><use xlink:href="#41" y="52.104"/><use xlink:href="#42" y="54.275"/><text x="2.004" y="62.458" class="f">Done.</text><text x="8.016" y="62.458" class="f">Two</text><text x="12.024" y="62.458" class="f">accounts,</text><text x="22.044" y="62.458" class="f">one</text><text x="26.052" y="62.458" class="f">machine,</text><text x="35.07" y="62.458" class="f">zero</text><text x="40.08" y="62.458" class="f">wasted</text><text x="47.094" y="62.458" class="f">capacity.</text></svg></svg></g></g></svg></svg>